<svg width="4" height="4" viewBox="0 0 4 4" fill="none" xmlns="http://www.w3.org/2000/svg">
<rect width="4" height="4" fill="#F5F5F5"/>
<rect width="1440" height="4823" transform="translate(-1377 -52)" fill="white"/>
<path d="M-1377 -52H63V748H-1377V-52Z" fill="#4A2B33"/>
<path d="M-1377 -52H63V68H-1377V-52Z" fill="#4A2B33"/>
<path d="M-4.5 -0.9291C-1.4273 -0.9291 -1.0635 -0.91563 0.144899 -0.86172C1.268 -0.8123 1.8744 -0.62363 2.2787 -0.46641C2.8133 -0.25977 3.1996 -0.00820011 3.5994 0.3916C4.0037 0.7959 4.2508 1.17773 4.4574 1.7123C4.6146 2.1166 4.8033 2.72754 4.8527 3.84609C4.9066 5.05898 4.9201 5.42285 4.9201 8.491C4.9201 11.5637 4.9066 11.9275 4.8527 13.1359C4.8033 14.259 4.6146 14.8654 4.4574 15.2697C4.2508 15.8043 3.9992 16.1906 3.5994 16.5904C3.1951 16.9947 2.8133 17.2418 2.2787 17.4484C1.8744 17.6057 1.2635 17.7943 0.144899 17.8437C-1.068 17.8977 -1.4318 17.9111 -4.5 17.9111C-7.57266 17.9111 -7.93652 17.8977 -9.14492 17.8437C-10.268 17.7943 -10.8744 17.6057 -11.2787 17.4484C-11.8133 17.2418 -12.1996 16.9902 -12.5994 16.5904C-13.0037 16.1861 -13.2508 15.8043 -13.4574 15.2697C-13.6147 14.8654 -13.8033 14.2545 -13.8527 13.1359C-13.9066 11.923 -13.9201 11.5592 -13.9201 8.491C-13.9201 5.41836 -13.9066 5.05449 -13.8527 3.84609C-13.8033 2.72305 -13.6147 2.1166 -13.4574 1.7123C-13.2508 1.17773 -12.9992 0.79141 -12.5994 0.3916C-12.1951 -0.0127001 -11.8133 -0.25977 -11.2787 -0.46641C-10.8744 -0.62363 -10.2635 -0.8123 -9.14492 -0.86172C-7.93652 -0.91563 -7.57266 -0.9291 -4.5 -0.9291ZM-4.5 -3C-7.62207 -3 -8.01289 -2.98652 -9.23926 -2.93262C-10.4611 -2.87871 -11.3012 -2.68105 -12.0289 -2.39805C-12.7881 -2.10156 -13.4305 -1.71074 -14.0684 -1.06836C-14.7107 -0.43047 -15.1016 0.21191 -15.398 0.9666C-15.6811 1.69883 -15.8787 2.53437 -15.9326 3.75625C-15.9865 4.98711 -16 5.37793 -16 8.5C-16 11.6221 -15.9865 12.0129 -15.9326 13.2393C-15.8787 14.4611 -15.6811 15.3012 -15.398 16.0289C-15.1016 16.7881 -14.7107 17.4305 -14.0684 18.0684C-13.4305 18.7062 -12.7881 19.1016 -12.0334 19.3936C-11.3012 19.6766 -10.4656 19.8742 -9.24375 19.9281C-8.01738 19.982 -7.62656 19.9955 -4.5045 19.9955C-1.3824 19.9955 -0.9916 19.982 0.2348 19.9281C1.4566 19.8742 2.2967 19.6766 3.0244 19.3936C3.7791 19.1016 4.4215 18.7062 5.0594 18.0684C5.6973 17.4305 6.0926 16.7881 6.3846 16.0334C6.6676 15.3012 6.8652 14.4656 6.9191 13.2438C6.973 12.0174 6.9865 11.6266 6.9865 8.5045C6.9865 5.38242 6.973 4.9916 6.9191 3.76523C6.8652 2.54336 6.6676 1.70332 6.3846 0.97559C6.1016 0.21191 5.7107 -0.43047 5.0684 -1.06836C4.4305 -1.70625 3.7881 -2.10156 3.0334 -2.39355C2.3012 -2.67656 1.4656 -2.87422 0.243799 -2.92813C-0.987101 -2.98652 -1.3779 -3 -4.5 -3Z" fill="#C67A88"/>
<path d="M-4.5 2.59277C-7.76133 2.59277 -10.4072 5.23867 -10.4072 8.5C-10.4072 11.7613 -7.76133 14.4072 -4.5 14.4072C-1.2387 14.4072 1.4072 11.7613 1.4072 8.5C1.4072 5.23867 -1.2387 2.59277 -4.5 2.59277ZM-4.5 12.3318C-6.61582 12.3318 -8.33184 10.6158 -8.33184 8.5C-8.33184 6.38418 -6.61582 4.66816 -4.5 4.66816C-2.3842 4.66816 -0.668196 6.38418 -0.668196 8.5C-0.668196 10.6158 -2.3842 12.3318 -4.5 12.3318Z" fill="#C67A88"/>
<path d="M3.01992 2.35909C3.01992 3.12276 2.40002 3.73819 1.64082 3.73819C0.87712 3.73819 0.261719 3.11827 0.261719 2.35909C0.261719 1.59541 0.88162 0.97998 1.64082 0.97998C2.40002 0.97998 3.01992 1.5999 3.01992 2.35909Z" fill="#C67A88"/>
</svg>
